<?xml version="1.0" encoding="utf-8"?>
<!-- Generator: Adobe Illustrator 16.0.0, SVG Export Plug-In . SVG Version: 6.00 Build 0)  -->
<!DOCTYPE svg PUBLIC "-//W3C//DTD SVG 1.1//EN" "http://www.w3.org/Graphics/SVG/1.1/DTD/svg11.dtd">
<svg version="1.1" id="Layer_1" xmlns="http://www.w3.org/2000/svg" xmlns:xlink="http://www.w3.org/1999/xlink" x="0px" y="0px"
	 width="84px" height="84px" viewBox="0.964 0 84 84" enable-background="new 0.964 0 84 84" xml:space="preserve">
<g>
	<g>
		<circle fill="#77736E" cx="59.912" cy="19.643" r="3.369"/>
		<circle fill="#77736E" cx="30.851" cy="19.643" r="3.369"/>
		<g>
			<path fill="#77736E" d="M14.795,19.826c4.901,0,8.387,2.876,10,5.89l-4.31,2.929c-1.361-2.281-3.341-3.488-5.659-3.488
				c-3.665,0-5.955,2.688-5.955,6.022c0,3.184,2.446,5.823,5.889,5.823c2.316,0,4.296-1.108,5.659-3.39l4.309,2.929
				c-2.189,4.089-6.003,5.823-10.001,5.823c-6.515,0-11.712-4.715-11.712-11.254C3.017,24.607,8.16,19.826,14.795,19.826z"/>
			<path fill="#77736E" d="M33.669,41.905h-5.658V25.453h5.658V41.905z"/>
			<path fill="#77736E" d="M54.72,25.487l-8.423,16.846h-1.809l-8.422-16.846h5.988l3.355,7.403l3.323-7.403H54.72z"/>
			<path fill="#77736E" d="M62.772,41.905h-5.659V25.453h5.659V41.905z"/>
			<path fill="#77736E" d="M75.106,25.026c3.532,0,6.105,1.878,7.401,4.409l-3.915,2.798c-0.954-1.481-2.074-2.008-3.389-2.008
				c-1.657,0-3.42,1.272-3.42,3.421c0,2.007,1.529,3.421,3.42,3.421c1.315,0,2.434-0.527,3.389-1.976l3.915,2.766
				c-1.575,3.074-4.49,4.407-7.401,4.407c-5.117,0-9.017-3.67-9.017-8.587C66.089,28.62,70.275,25.026,75.106,25.026z"/>
		</g>
	</g>
	<g>
		<g>
			<g>
				<path fill="#627DAB" d="M26.15,49.616c2.178,1.966,3.299,4.496,3.299,7.701c0,3.17-1.1,5.758-3.299,7.765
					c-2.201,2.005-4.984,3.007-8.313,3.007h-7.441v-21.35h7.441C19.325,46.739,23.1,46.866,26.15,49.616z M15.895,51.786v11.29
					h1.844c1.746,0,3.17-0.517,4.303-1.551c1.132-1.037,1.796-2.429,1.796-4.207c0-1.812-0.665-3.203-1.766-4.141
					c-1.1-0.938-2.492-1.416-4.272-1.382L15.895,51.786z"/>
				<path fill="#627DAB" d="M53.636,46.739v21.854l-1.668-0.016L40.275,57.251v10.838h-5.563V46.234l1.695,0.011l11.664,11.169
					V46.739H53.636L53.636,46.739z"/>
				<path fill="#627DAB" d="M71.652,66.31h-7.667l-0.778,1.778h-5.985l9.734-21.844h1.683l9.772,21.844h-5.986L71.652,66.31z
					 M67.834,56.668l-2.095,5.176h4.165L67.834,56.668z"/>
			</g>
		</g>
	</g>
</g>
</svg>
