<?xml version="1.0" encoding="utf-8"?>
<!-- Generator: Adobe Illustrator 16.0.0, SVG Export Plug-In . SVG Version: 6.00 Build 0)  -->
<!DOCTYPE svg PUBLIC "-//W3C//DTD SVG 1.1//EN" "http://www.w3.org/Graphics/SVG/1.1/DTD/svg11.dtd">
<svg version="1.1" id="Layer_1" xmlns="http://www.w3.org/2000/svg" xmlns:xlink="http://www.w3.org/1999/xlink" x="0px" y="0px"
	 width="204px" height="77.333px" viewBox="294.5 267.167 204 77.333" enable-background="new 294.5 267.167 204 77.333"
	 xml:space="preserve">
<g>
	<g>
		<circle fill="#77736E" cx="370.812" cy="275.128" r="4.23"/>
		<circle fill="#77736E" cx="334.322" cy="275.128" r="4.23"/>
		<g>
			<path fill="#77736E" d="M314.162,275.358c6.155,0,10.531,3.611,12.557,7.396l-5.412,3.678c-1.71-2.864-4.195-4.38-7.105-4.38
				c-4.602,0-7.478,3.374-7.478,7.561c0,3.998,3.072,7.312,7.395,7.312c2.909,0,5.395-1.391,7.105-4.256l5.412,3.677
				c-2.749,5.134-7.539,7.312-12.559,7.312c-8.18,0-14.706-5.92-14.706-14.13C299.372,281.362,305.83,275.358,314.162,275.358z"/>
			<path fill="#77736E" d="M337.861,303.082h-7.105v-20.657h7.105V303.082z"/>
			<path fill="#77736E" d="M364.293,282.468l-10.576,21.152h-2.271l-10.576-21.152h7.518l4.213,9.295l4.173-9.295H364.293z"/>
			<path fill="#77736E" d="M374.404,303.082h-7.105v-20.657h7.105V303.082z"/>
			<path fill="#77736E" d="M389.89,281.888c4.436,0,7.667,2.359,9.295,5.536l-4.916,3.514c-1.198-1.86-2.604-2.522-4.256-2.522
				c-2.08,0-4.294,1.598-4.294,4.297c0,2.52,1.919,4.295,4.294,4.295c1.652,0,3.057-0.662,4.256-2.48l4.916,3.473
				c-1.978,3.86-5.638,5.534-9.295,5.534c-6.424,0-11.321-4.608-11.321-10.782C378.568,286.401,383.825,281.888,389.89,281.888z"/>
		</g>
	</g>
	<g>
		<g>
			<g>
				<path fill="#77736E" d="M451.497,332.274c-0.92,1.815-2.803,3.062-4.979,3.062c-3.086,0-5.582-2.498-5.582-5.579
					c0-3.082,2.496-5.581,5.582-5.581c2.131,0,3.981,1.195,4.92,2.954l2.602-2.557c-1.686-2.552-4.577-4.236-7.864-4.236
					c-5.205,0-9.422,4.218-9.422,9.421s4.217,9.421,9.422,9.421c3.329,0,6.254-1.729,7.931-4.34L451.497,332.274z"/>
				<rect x="444.722" y="327.854" fill="#627DAB" width="3.817" height="3.817"/>
				<path fill="#77736E" d="M430.574,321.014h4.082v17.823h-4.082V321.014z"/>
				<path fill="#77736E" d="M455.747,321.014h5.533l3.818,11.631h0.048l3.845-11.631h5.509v17.823h-3.657v-13.124h-0.045
					l-4.358,13.124h-2.789l-4.195-13.124h-0.047v13.124h-3.658v-17.823H455.747z"/>
				<polygon fill="#77736E" points="492.534,338.837 485.315,321.014 482.292,321.014 475.12,338.837 479.149,338.837 
					483.696,326.2 487.198,335.589 482.704,335.591 481.557,338.839 				"/>
			</g>
		</g>
		<g>
			<path fill="#77736E" d="M422.324,330.566l-4.066,9.406c-0.609,1.39-1.541,2.084-2.796,2.084c-0.424,0-0.849-0.051-1.271-0.17
				v-1.101c0.424,0.05,0.764,0.085,1,0.085c0.424,0,0.797-0.103,1.104-0.289c0.305-0.186,0.559-0.525,0.779-1.018l0.44-1
				l-3.423-7.982h1.406l2.729,6.575l2.729-6.575L422.324,330.566z"/>
		</g>
	</g>
	<g>
		<g>
			<g>
				<path fill="#627DAB" d="M429.064,280.249c2.735,2.469,4.143,5.646,4.143,9.67c0,3.98-1.381,7.229-4.143,9.749
					c-2.763,2.518-6.257,3.776-10.438,3.776h-9.344v-26.809h9.344C420.495,276.636,425.234,276.796,429.064,280.249z
					 M416.188,282.973v14.176h2.315c2.191,0,3.98-0.649,5.402-1.948c1.421-1.301,2.256-3.048,2.256-5.281
					c0-2.275-0.835-4.022-2.217-5.199c-1.382-1.178-3.129-1.778-5.364-1.736L416.188,282.973z"/>
				<path fill="#627DAB" d="M463.577,276.636v27.44l-2.095-0.02l-14.682-14.219v13.608h-6.985v-27.442l2.128,0.013l14.647,14.023
					v-13.404L463.577,276.636L463.577,276.636z"/>
				<path fill="#627DAB" d="M486.199,301.212h-9.628l-0.977,2.232h-7.515l12.223-27.428h2.113l12.271,27.428h-7.517L486.199,301.212
					z M481.405,289.104l-2.631,6.5h5.23L481.405,289.104z"/>
			</g>
		</g>
	</g>
	<path fill="#77736E" d="M408.88,330.396c1.17,0,2.152,0.406,2.934,1.235c0.778,0.831,1.17,1.864,1.17,3.103
		c0,1.22-0.392,2.236-1.152,3.067c-0.763,0.829-1.728,1.236-2.897,1.236c-0.646,0-1.255-0.137-1.812-0.407
		c-0.561-0.271-1-0.645-1.322-1.119v1.323h-1.221v-12.71h1.306v5.677c0.322-0.439,0.764-0.78,1.305-1.034
		c0.543-0.254,1.118-0.373,1.744-0.373L408.88,330.396L408.88,330.396z M408.66,337.854c0.848,0,1.541-0.287,2.101-0.882
		c0.561-0.594,0.829-1.339,0.829-2.236c0-0.898-0.271-1.646-0.829-2.236c-0.56-0.594-1.255-0.882-2.086-0.882
		c-0.796,0-1.474,0.271-2.033,0.797c-0.559,0.526-0.831,1.305-0.831,2.321c0,1.018,0.289,1.778,0.849,2.305
		C407.219,337.565,407.863,337.854,408.66,337.854z"/>
</g>
</svg>
