<?xml version="1.0" encoding="utf-8"?>
<!-- Generator: Adobe Illustrator 16.0.0, SVG Export Plug-In . SVG Version: 6.00 Build 0)  -->
<!DOCTYPE svg PUBLIC "-//W3C//DTD SVG 1.1//EN" "http://www.w3.org/Graphics/SVG/1.1/DTD/svg11.dtd">
<svg version="1.1" id="Layer_1" xmlns="http://www.w3.org/2000/svg" xmlns:xlink="http://www.w3.org/1999/xlink" x="0px" y="0px"
	 width="201px" height="68.666px" viewBox="0 0 201 68.666" enable-background="new 0 0 201 68.666" xml:space="preserve">
<g>
	<g>
		<path fill="#FFFFFF" d="M68.906,43.246c-2.832,5.59-8.629,9.426-15.328,9.426c-9.5,0-17.184-7.688-17.184-17.175
			c0-9.487,7.685-17.18,17.184-17.18c6.559,0,12.255,3.68,15.145,9.093l8.008-7.87C71.543,11.685,62.643,6.499,52.523,6.499
			c-16.023,0-29.004,12.984-29.004,29s12.98,29,29.004,29c10.248,0,19.252-5.322,24.412-13.359L68.906,43.246z"/>
		<rect x="48.049" y="29.638" fill="#FFFFFF" width="11.751" height="11.75"/>
		<path fill="#FFFFFF" d="M4.5,8.583h12.564v54.866H4.5V8.583z"/>
		<path fill="#FFFFFF" d="M81.988,8.583H99.02l11.755,35.804h0.146l11.836-35.804h16.956v54.866h-11.258v-40.4h-0.138l-13.417,40.4
			h-8.586L93.4,23.049h-0.145v40.4h-11.26V8.583H81.988z"/>
		<polygon fill="#FFFFFF" points="195.229,63.449 173.008,8.583 163.699,8.583 141.623,63.449 154.026,63.449 168.023,24.549 
			178.804,53.449 164.969,53.455 161.438,63.455 		"/>
	</g>
</g>
</svg>
